<svg version="1.1" xmlns="http://www.w3.org/2000/svg" xmlns:xlink="http://www.w3.org/1999/xlink" viewBox="0 0 172 172"><g fill="none" fill-rule="nonzero" stroke="none" stroke-width="1" stroke-linecap="butt" stroke-linejoin="miter" stroke-miterlimit="10" stroke-dasharray="" stroke-dashoffset="0" font-family="none" font-weight="none" font-size="none" text-anchor="none" style="mix-blend-mode: normal"><path d="M0,172v-172h172v172z" fill="none"></path><g fill="#7cd647"><path d="M86,15.48c-12.22429,0 -20.39239,3.94702 -25.47078,7.92141c-5.07839,3.97439 -7.11852,8.03563 -7.11852,8.03563c-0.05943,0.11893 -0.09047,0.25002 -0.0907,0.38297v20.64v2.01227c0,0.96137 0.38058,1.79834 0.78273,2.60352c-1.47354,1.25983 -2.50273,3.04807 -2.50273,5.13648c0,1.97473 0.92906,3.67293 2.26086,4.92148c-0.267,0.61448 -0.54086,1.23689 -0.54086,1.95852c0,0.56037 0.10144,1.09546 0.26875,1.59906c-1.02117,0.71204 -1.98875,1.76985 -1.98875,3.26867c0,2.21307 0.78268,5.66565 1.79055,9.08711c0.51972,1.76488 0.93255,3.567 1.84765,5.16336c0.65163,1.13674 1.84945,1.9565 3.2418,2.44562v5.66391c0,2.73961 1.8018,5.52541 4.40078,8.71758c2.41723,2.96894 5.70205,6.01841 9.35922,8.52945v4.38398c0,0.74716 -0.43908,1.37405 -1.13547,1.61922c-0.00112,0 -0.00224,0 -0.00336,0c-0.38279,0.135 -0.823,0.28962 -1.32024,0.46695c-2.96774,1.05487 -7.9006,2.84157 -15.34562,5.63367c-14.70121,5.51298 -14.87531,20.52914 -14.87531,20.52914c0.00009,0.94989 0.77011,1.71991 1.72,1.72h89.44c0.94989,-0.00009 1.71991,-0.77011 1.72,-1.72c0,0 -0.17402,-15.01616 -14.87531,-20.52914c-7.44699,-2.79284 -12.38149,-4.58227 -15.34898,-5.63703c-0.00112,0 -0.00224,0 -0.00336,0c-0.49091,-0.17336 -0.92643,-0.32708 -1.31352,-0.46359c-0.00112,0 -0.00224,0 -0.00336,0c-0.69623,-0.24517 -1.13547,-0.87206 -1.13547,-1.61922v-4.38398c3.65717,-2.51105 6.94199,-5.56052 9.35922,-8.52945c2.59898,-3.19217 4.40078,-5.97797 4.40078,-8.71758v-5.66391c1.39235,-0.48912 2.59017,-1.30888 3.2418,-2.44562c0.91511,-1.59636 1.32793,-3.39848 1.84765,-5.16336c1.00787,-3.42146 1.79055,-6.87404 1.79055,-9.08711c0,-1.49882 -0.96758,-2.55664 -1.98875,-3.26867c0.16731,-0.5036 0.26875,-1.03869 0.26875,-1.59906c0,-0.72162 -0.27386,-1.34404 -0.54086,-1.95852c1.3318,-1.24855 2.26086,-2.94676 2.26086,-4.92148c0,-2.08841 -1.0292,-3.87665 -2.50273,-5.13648c0.40215,-0.80518 0.78273,-1.64214 0.78273,-2.60352v-2.01227v-20.64c-0.00023,-0.13295 -0.03128,-0.26404 -0.0907,-0.38297c0,0 -2.04013,-4.06124 -7.11852,-8.03562c-5.07839,-3.97439 -13.2465,-7.92141 -25.47078,-7.92141zM86,17.2c11.85571,0 19.59761,3.79298 24.40922,7.55859c4.66805,3.65325 6.44388,7.09659 6.55078,7.30664v18.69828c-2.83662,-2.10364 -11.76702,-7.95664 -25.58836,-9.2282c-0.20403,-0.01944 -0.41545,-0.02969 -0.62148,-0.04703c-0.63557,-0.0516 -1.26923,-0.10309 -1.92492,-0.13437c-0.92426,-0.04592 -1.86407,-0.07391 -2.82523,-0.07391c-0.96116,0 -1.90097,0.02799 -2.82523,0.07391c-0.65569,0.03129 -1.28935,0.08277 -1.92492,0.13437c-0.20603,0.01734 -0.41745,0.0276 -0.62148,0.04703c-13.82134,1.27156 -22.75174,7.12456 -25.58836,9.2282v-18.69828c0.1069,-0.21005 1.88273,-3.65339 6.55078,-7.30664c4.81161,-3.76561 12.5535,-7.55859 24.40922,-7.55859zM83.42,22.36c-0.47495,0.00005 -0.85995,0.38505 -0.86,0.86v2.58h-2.58c-0.47495,0.00005 -0.85995,0.38505 -0.86,0.86v5.16c0.00005,0.47495 0.38505,0.85995 0.86,0.86h2.58v2.58c0.00005,0.47495 0.38505,0.85995 0.86,0.86h5.16c0.47495,-0.00005 0.85995,-0.38505 0.86,-0.86v-2.58h2.58c0.47495,-0.00005 0.85995,-0.38505 0.86,-0.86v-5.16c-0.00005,-0.47495 -0.38505,-0.85995 -0.86,-0.86h-2.58v-2.58c-0.00005,-0.47495 -0.38505,-0.85995 -0.86,-0.86zM84.28,24.08h3.44v2.58c0.00005,0.47495 0.38505,0.85995 0.86,0.86h2.58v3.44h-2.58c-0.47495,0.00005 -0.85995,0.38505 -0.86,0.86v2.58h-3.44v-2.58c-0.00005,-0.47495 -0.38505,-0.85995 -0.86,-0.86h-2.58v-3.44h2.58c0.47495,-0.00005 0.85995,-0.38505 0.86,-0.86zM86,43c1.07168,0 2.10992,0.04294 3.1343,0.10078c0.34393,0.01985 0.68293,0.04456 1.02125,0.07055c0.64276,0.04831 1.27179,0.10939 1.89469,0.17805c0.43655,0.04915 0.88032,0.09259 1.3068,0.15117c3.8426,0.52783 7.27351,1.42519 10.27633,2.45906c4.31342,8.87917 4.67218,19.4734 4.70313,21.85609c-2.46778,-0.38101 -5.47971,-0.7357 -8.57648,-0.7357c-3.44,0 -9.04602,0.74245 -11.08594,3.39297c0,0.00688 -0.2795,0.65763 -0.5375,1.76703h-4.27649c-0.25628,-1.1094 -0.5375,-1.76015 -0.5375,-1.76703c-2.0382,-2.65052 -7.64258,-3.39297 -11.08258,-3.39297c-3.17418,0 -6.27773,0.37049 -8.77469,0.76258c0.06602,-2.35734 0.57256,-12.98077 4.90133,-21.88297c3.00281,-1.03387 6.43373,-1.93123 10.27633,-2.45906c0.42648,-0.05858 0.87024,-0.10202 1.3068,-0.15117c0.62289,-0.06865 1.25193,-0.12974 1.89469,-0.17805c0.33832,-0.02598 0.67732,-0.0507 1.02125,-0.07055c1.02438,-0.05784 2.06262,-0.10078 3.1343,-0.10078zM66.06547,46.77258c-4.01852,9.33486 -4.30944,19.53999 -4.33359,21.3018c-0.85214,0.11847 -2.31122,0.34708 -4.15219,0.87008c-0.81841,0.2325 -1.64423,0.51607 -2.43219,0.87008c-0.0526,-0.23525 -0.1075,-0.47048 -0.1075,-0.72227c0,-0.62543 0.17804,-1.20406 0.48375,-1.72672c0.21766,-0.37139 0.12723,-0.84649 -0.21164,-1.11195c-1.21063,-0.951 -1.99211,-2.39221 -1.99211,-4.04133c0,-1.74981 0.87084,-3.2809 2.20039,-4.21602c0.3782,-0.26663 0.47766,-0.7847 0.22508,-1.17242c-0.44536,-0.68029 -0.70547,-1.48238 -0.70547,-2.35156v-1.59906c0.82684,-0.66903 4.61695,-3.56384 11.02547,-6.10063zM105.93117,46.77258c6.41024,2.53703 10.20186,5.4315 11.02883,6.10063v1.59906c0,0.86918 -0.26011,1.67127 -0.70547,2.35156c-0.25258,0.38772 -0.15312,0.90579 0.22508,1.17242c1.32955,0.93512 2.20039,2.4662 2.20039,4.21602c0,1.64911 -0.78148,3.09033 -1.99211,4.04133c-0.33887,0.26546 -0.4293,0.74057 -0.21164,1.11195c0.30571,0.52266 0.48375,1.10129 0.48375,1.72672c0,0.25179 -0.0549,0.48702 -0.1075,0.72227c-0.78795,-0.35401 -1.61378,-0.63757 -2.43219,-0.87008c-2.00595,-0.56987 -3.61891,-0.80363 -4.35375,-0.90031c0.00198,-1.84998 -0.15548,-11.9803 -4.13539,-21.27156zM73.96,60.2c-2.3392,-0.00516 -4.68356,0.24666 -6.88,0.75922l1.17914,2.25414c1.8146,-0.4472 3.7607,-0.65352 5.70086,-0.64836c2.4682,0.00516 4.93084,0.35776 7.1118,1.075l1.4882,-2.19703c-2.65568,-0.81872 -5.6244,-1.23609 -8.6,-1.24297zM98.04,60.2c-2.9756,0.00516 -5.94432,0.42425 -8.6,1.24297l1.4882,2.19703c2.18096,-0.71724 4.6436,-1.06984 7.1118,-1.075c1.94016,-0.00516 3.88626,0.20116 5.70086,0.64836l1.17914,-2.25414c-2.19644,-0.51256 -4.5408,-0.76266 -6.88,-0.75922zM72.24,68.8c3.5604,0 7.9969,0.79881 9.57758,2.54977c0.27176,0.75336 0.93807,2.96549 0.68867,5.93937c-0.31992,3.76852 -2.02277,8.33262 -8.31109,8.70414c-8.87004,-0.01376 -10.55516,-3.63624 -10.55516,-10.31328v-3.13094c0,-1.75956 1.32123,-3.22884 3.07047,-3.4232c1.7458,-0.19092 3.63581,-0.32586 5.52953,-0.32586zM99.76,68.8c1.89372,0 3.78373,0.13322 5.52953,0.32586c1.74924,0.19264 3.07047,1.66364 3.07047,3.4232v3.13094c0,6.67704 -1.68348,10.29952 -10.5518,10.31328c-6.28832,-0.37152 -7.99117,-4.93562 -8.31109,-8.70414c-0.25112,-2.97388 0.41355,-5.18601 0.68531,-5.93937c1.58068,-1.75096 6.01718,-2.54977 9.57758,-2.54977zM73.96,70.52c-1.37428,0 -2.54858,1.01402 -3.1007,2.46914c0.31132,-0.44204 0.79934,-0.74914 1.3807,-0.74914c0.94944,0 1.72,0.77056 1.72,1.72c0,0.94944 -0.77056,1.72 -1.72,1.72c-0.86344,0 -1.54577,-0.64745 -1.66961,-1.47477c-0.02408,0.20124 -0.05039,0.40493 -0.05039,0.61477c0,2.37532 1.5394,4.3 3.44,4.3c1.9006,0 3.44,-1.92468 3.44,-4.3c0,-2.37532 -1.5394,-4.3 -3.44,-4.3zM98.04,70.52c-1.37428,0 -2.54858,1.01402 -3.1007,2.46914c0.31132,-0.44204 0.79934,-0.74914 1.3807,-0.74914c0.94944,0 1.72,0.77056 1.72,1.72c0,0.94944 -0.77056,1.72 -1.72,1.72c-0.86344,0 -1.54577,-0.64745 -1.66961,-1.47477c-0.02408,0.20124 -0.05039,0.40493 -0.05039,0.61477c0,2.37532 1.5394,4.3 3.44,4.3c1.9006,0 3.44,-1.92468 3.44,-4.3c0,-2.37532 -1.5394,-4.3 -3.44,-4.3zM59.8607,72.01492c1.71688,0.09117 2.0593,2.16008 2.0593,3.66508c0,6.88 1.71847,12.03328 12.31883,12.03328c7.82428,-0.43344 9.65734,-6.47505 9.9807,-10.27969c0.09632,-1.1438 0.06248,-2.17239 -0.02352,-3.08055c0.47816,-0.22704 1.06266,-0.39305 1.80398,-0.39305c0.74304,0 1.32918,0.14977 1.80734,0.35273c-0.08944,0.91848 -0.12492,1.95986 -0.02688,3.12086c0.32336,3.80464 2.1547,9.84453 9.9807,10.27969c10.60036,0 12.31883,-5.15328 12.31883,-12.03328c0,-1.67521 0.43885,-4.02673 2.71102,-3.59453c0.2319,0.05822 0.4556,0.10512 0.68867,0.17133c1.09552,0.31123 2.1633,0.72344 2.8118,1.12875c0.6485,0.40531 0.66852,0.60909 0.66852,0.57445c0,1.22693 -0.69652,4.87795 -1.64945,8.11289c-0.54496,1.85056 -0.99315,3.48788 -1.53187,4.42766c-0.53872,0.93978 -0.80277,1.21945 -1.97867,1.21945c-0.94989,0.00009 -1.71991,0.77011 -1.72,1.72v6.88c0,0.69867 -1.25716,3.63531 -3.62812,6.54742c-2.37096,2.91211 -5.70694,6.05313 -9.34914,8.42195c-4.01676,2.61123 -7.88,3.95063 -11.10273,3.95063c-3.22273,0 -7.08598,-1.3394 -11.10273,-3.95063c-3.6422,-2.36882 -6.97818,-5.50984 -9.34914,-8.42195c-2.37096,-2.91211 -3.62812,-5.84875 -3.62812,-6.54742v-6.88c-0.00009,-0.94989 -0.77011,-1.71991 -1.72,-1.72c-1.17591,0 -1.43995,-0.27967 -1.97867,-1.21945c-0.53872,-0.93978 -0.98692,-2.5771 -1.53187,-4.42766c-0.95293,-3.23494 -1.64945,-6.88596 -1.64945,-8.11289c0,0.03464 0.02002,-0.16914 0.66852,-0.57445c0.6485,-0.40531 1.71628,-0.81752 2.8118,-1.12875c0.23307,-0.06621 0.45677,-0.11311 0.68867,-0.17133c0.23086,-0.04391 0.45755,-0.08086 0.65172,-0.07055zM81.63953,92.86992c-0.3191,0.01863 -0.60155,0.21268 -0.73339,0.50386c-0.13184,0.29118 -0.09133,0.63147 0.10519,0.88356c0,0 0.44366,0.57278 1.25977,1.075c0.81611,0.50222 2.0601,0.98766 3.72891,0.98766c1.66881,0 2.9128,-0.48544 3.72891,-0.98766c0.81611,-0.50222 1.25977,-1.075 1.25977,-1.075c0.28572,-0.38034 0.20901,-0.9203 -0.17133,-1.20602c-0.38034,-0.28572 -0.9203,-0.20901 -1.20602,0.17133c0,0 -0.20134,0.28722 -0.78273,0.645c-0.58139,0.35778 -1.4874,0.73234 -2.82859,0.73234c-1.34119,0 -2.2472,-0.37456 -2.82859,-0.73234c-0.58139,-0.35778 -0.78273,-0.645 -0.78273,-0.645c-0.15503,-0.21262 -0.39885,-0.34258 -0.6618,-0.35273c-0.0291,-0.00148 -0.05825,-0.00148 -0.08734,0zM72.7943,99.76672c-0.16319,0.02387 -0.32,0.11005 -0.42664,0.25195c-0.21328,0.28552 -0.1545,0.69039 0.13102,0.90367c0.21672,0.1634 5.42421,3.99766 13.50133,3.99766c8.07712,0 13.28461,-3.83426 13.50133,-3.99766c0.2838,-0.21328 0.3443,-0.61815 0.13102,-0.90367c-0.21328,-0.2838 -0.61643,-0.3443 -0.90367,-0.13102c-0.04988,0.03784 -5.10047,3.31234 -12.72867,3.31234c-7.6282,0 -12.67879,-3.2745 -12.72867,-3.31234c-0.14362,-0.10664 -0.31384,-0.1448 -0.47703,-0.12094zM75.68,113.77867c3.61306,2.06565 7.13234,3.18133 10.32,3.18133c3.18766,0 6.70694,-1.11567 10.32,-3.18133v4.17234c0,2.08097 1.26681,3.95705 3.18133,4.75016l-7.78031,21.77883h-11.44203l-7.45781,-20.87852c2.75188,0.94896 7.07678,1.95852 13.17883,1.95852c0.92157,0 1.78885,-0.0288 2.62367,-0.07055c0.30727,-0.01557 0.58289,-0.1939 0.72301,-0.4678c0.14013,-0.2739 0.12348,-0.60175 -0.04367,-0.86005c-0.16716,-0.25829 -0.45942,-0.40778 -0.76668,-0.39215c-0.81638,0.04083 -1.65189,0.07055 -2.53633,0.07055c-5.71719,0 -9.77547,-0.90881 -12.36922,-1.77375c1.26649,-0.95894 2.04922,-2.47688 2.04922,-4.11523zM95.42305,122.88258c-0.04873,0.00372 -0.09706,0.01159 -0.14445,0.02352c-1.0104,0.21892 -2.12215,0.41791 -3.36609,0.57445c-0.30771,0.03507 -0.5728,0.23288 -0.69404,0.51786c-0.12124,0.28499 -0.07989,0.61315 0.10824,0.85916c0.18813,0.24601 0.49401,0.37188 0.8008,0.32954c1.29822,-0.16338 2.46031,-0.37305 3.51391,-0.60133c0.44728,-0.08456 0.75122,-0.50298 0.69333,-0.95449c-0.05789,-0.45151 -0.45755,-0.77972 -0.91169,-0.74872zM70.88617,123.29242l7.56531,21.18758h-5.06594l-6.15438,-4.61578l1.52515,-4.57211c0.12258,-0.36806 -0.0164,-0.77263 -0.3393,-0.98766l-4.77703,-3.18469v-5.16672c2.34539,-0.85706 5.84413,-2.16218 7.24617,-2.66062zM101.11383,123.29578c1.40217,0.49849 4.90087,1.80411 7.24617,2.66063v5.16336l-4.77703,3.18469c-0.3229,0.21502 -0.46188,0.61959 -0.3393,0.98766l1.52515,4.57211l-6.15773,4.61578h-5.06258zM61.92,126.58461v4.99539c0.00002,0.28754 0.14373,0.55604 0.38297,0.71555l4.61242,3.07719l-1.51172,4.53516c-0.11762,0.35123 0.00284,0.73831 0.29898,0.96078l4.81734,3.61133h-27.37555c0.40766,-3.46116 2.39797,-11.80251 12.50023,-15.59086c3.0496,-1.14369 4.0354,-1.48113 6.27531,-2.30453zM110.08,126.58797c2.23946,0.82281 3.22624,1.15768 6.27531,2.30117c10.10227,3.78835 12.09258,12.1297 12.50023,15.59086h-27.37555l4.81734,-3.61133c0.29615,-0.22247 0.4166,-0.60955 0.29898,-0.96078l-1.51172,-4.53516l4.61242,-3.07719c0.23924,-0.15951 0.38295,-0.42801 0.38297,-0.71555z"></path></g></g></svg>