<svg version="1.1" xmlns="http://www.w3.org/2000/svg" xmlns:xlink="http://www.w3.org/1999/xlink" viewBox="0 0 172 172"><g fill="none" fill-rule="nonzero" stroke="none" stroke-width="1" stroke-linecap="butt" stroke-linejoin="miter" stroke-miterlimit="10" stroke-dasharray="" stroke-dashoffset="0" font-family="none" font-weight="none" font-size="none" text-anchor="none" style="mix-blend-mode: normal"><path d="M0,172v-172h172v172z" fill="none"></path><g fill="#7cd647"><path d="M61.8125,21.5c-4.44067,0 -8.0625,3.62183 -8.0625,8.0625v13.4375h-10.75v-5.21753c0,-1.49072 -1.19678,-2.6875 -2.6875,-2.6875c-1.49072,0 -2.6875,1.19678 -2.6875,2.6875v5.21753h-5.375v-18.66553c0,-1.48023 -1.19678,-2.6875 -2.6875,-2.6875c-1.49072,0 -2.6875,1.20727 -2.6875,2.6875v18.66553h-1.24927c-1.80566,0 -3.47485,0.89233 -4.47217,2.39355l-9.25928,13.88892c-3.70581,0.72436 -6.51929,3.98926 -6.51929,7.90503c0,3.49585 2.25708,6.4563 5.375,7.56909v86.49341h-8.0625c-1.49072,0 -2.6875,1.20728 -2.6875,2.6875c0,1.48022 1.19678,2.6875 2.6875,2.6875h161.25c1.49072,0 2.6875,-1.20728 2.6875,-2.6875c0,-1.48022 -1.19678,-2.6875 -2.6875,-2.6875h-8.0625v-86.49341c3.11792,-1.11279 5.375,-4.07324 5.375,-7.56909c0,-3.91577 -2.81348,-7.18066 -6.51929,-7.90503l-9.25928,-13.88892c-0.99731,-1.50122 -2.6665,-2.39355 -4.47217,-2.39355h-28.12427v-13.4375c0,-4.44067 -3.62183,-8.0625 -8.0625,-8.0625zM61.8125,26.875h43c1.48022,0 2.6875,1.20728 2.6875,2.6875v43c0,1.48022 -1.20728,2.6875 -2.6875,2.6875h-43c-1.48022,0 -2.6875,-1.20728 -2.6875,-2.6875v-43c0,-1.48022 1.20728,-2.6875 2.6875,-2.6875zM80.625,32.25c-2.96045,0 -5.375,2.41455 -5.375,5.375v5.375h-5.375c-2.96045,0 -5.375,2.41455 -5.375,5.375v5.375c0,2.96045 2.41455,5.375 5.375,5.375h5.375v5.375c0,2.96045 2.41455,5.375 5.375,5.375h5.375c2.96045,0 5.375,-2.41455 5.375,-5.375v-5.375h5.375c2.96045,0 5.375,-2.41455 5.375,-5.375v-5.375c0,-2.96045 -2.41455,-5.375 -5.375,-5.375h-5.375v-5.375c0,-2.96045 -2.41455,-5.375 -5.375,-5.375zM80.625,37.625h5.375v5.375c0,2.96045 2.41455,5.375 5.375,5.375h5.375v5.375h-5.375c-2.96045,0 -5.375,2.41455 -5.375,5.375v5.375h-5.375v-5.375c0,-2.96045 -2.41455,-5.375 -5.375,-5.375h-5.375v-5.375h5.375c2.96045,0 5.375,-2.41455 5.375,-5.375zM25.62573,48.375h1.24927v2.84497c0,1.48022 1.19678,2.6875 2.6875,2.6875c1.49072,0 2.6875,-1.20728 2.6875,-2.6875v-2.84497h5.375v2.84497c0,1.48022 1.19678,2.6875 2.6875,2.6875c1.49072,0 2.6875,-1.20728 2.6875,-2.6875v-2.84497h10.75v10.75h-35.29443zM112.875,48.375h28.12427l7.17017,10.75h-35.29443zM13.4375,64.5h40.3125v5.375h-40.3125c-1.48022,0 -2.6875,-1.20728 -2.6875,-2.6875c0,-1.48022 1.20728,-2.6875 2.6875,-2.6875zM112.875,64.5h40.3125c1.48022,0 2.6875,1.20728 2.6875,2.6875c0,1.48022 -1.20728,2.6875 -2.6875,2.6875h-40.3125zM16.125,75.25h38.11841c1.11279,3.11792 4.07324,5.375 7.56909,5.375h43c3.49585,0 6.4563,-2.25708 7.56909,-5.375h38.11841v86h-48.375v-27.01147c0,-2.96045 -2.41455,-5.375 -5.375,-5.375h-26.875c-2.96045,0 -5.375,2.41455 -5.375,5.375v27.01147h-48.375v-37.625h107.5c1.49072,0 2.6875,-1.20728 2.6875,-2.6875c0,-1.48022 -1.19678,-2.6875 -2.6875,-2.6875h-107.5zM29.5625,91.375c-1.49072,0 -2.6875,1.20728 -2.6875,2.6875c0,1.48022 1.19678,2.6875 2.6875,2.6875h5.375c1.49072,0 2.6875,-1.20728 2.6875,-2.6875c0,-1.48022 -1.19678,-2.6875 -2.6875,-2.6875zM45.6875,91.375c-1.49072,0 -2.6875,1.20728 -2.6875,2.6875c0,1.48022 1.19678,2.6875 2.6875,2.6875h5.375c1.49072,0 2.6875,-1.20728 2.6875,-2.6875c0,-1.48022 -1.19678,-2.6875 -2.6875,-2.6875zM72.5625,91.375c-1.49072,0 -2.6875,1.20728 -2.6875,2.6875c0,1.48022 1.19678,2.6875 2.6875,2.6875h5.375c1.49072,0 2.6875,-1.20728 2.6875,-2.6875c0,-1.48022 -1.19678,-2.6875 -2.6875,-2.6875zM88.6875,91.375c-1.49072,0 -2.6875,1.20728 -2.6875,2.6875c0,1.48022 1.19678,2.6875 2.6875,2.6875h5.375c1.49072,0 2.6875,-1.20728 2.6875,-2.6875c0,-1.48022 -1.19678,-2.6875 -2.6875,-2.6875zM115.5625,91.375c-1.49072,0 -2.6875,1.20728 -2.6875,2.6875c0,1.48022 1.19678,2.6875 2.6875,2.6875h5.375c1.49072,0 2.6875,-1.20728 2.6875,-2.6875c0,-1.48022 -1.19678,-2.6875 -2.6875,-2.6875zM131.6875,91.375c-1.49072,0 -2.6875,1.20728 -2.6875,2.6875c0,1.48022 1.19678,2.6875 2.6875,2.6875h5.375c1.49072,0 2.6875,-1.20728 2.6875,-2.6875c0,-1.48022 -1.19678,-2.6875 -2.6875,-2.6875zM29.5625,102.125c-1.49072,0 -2.6875,1.20728 -2.6875,2.6875c0,1.48022 1.19678,2.6875 2.6875,2.6875h5.375c1.49072,0 2.6875,-1.20728 2.6875,-2.6875c0,-1.48022 -1.19678,-2.6875 -2.6875,-2.6875zM45.6875,102.125c-1.49072,0 -2.6875,1.20728 -2.6875,2.6875c0,1.48022 1.19678,2.6875 2.6875,2.6875h5.375c1.49072,0 2.6875,-1.20728 2.6875,-2.6875c0,-1.48022 -1.19678,-2.6875 -2.6875,-2.6875zM72.5625,102.125c-1.49072,0 -2.6875,1.20728 -2.6875,2.6875c0,1.48022 1.19678,2.6875 2.6875,2.6875h5.375c1.49072,0 2.6875,-1.20728 2.6875,-2.6875c0,-1.48022 -1.19678,-2.6875 -2.6875,-2.6875zM88.6875,102.125c-1.49072,0 -2.6875,1.20728 -2.6875,2.6875c0,1.48022 1.19678,2.6875 2.6875,2.6875h5.375c1.49072,0 2.6875,-1.20728 2.6875,-2.6875c0,-1.48022 -1.19678,-2.6875 -2.6875,-2.6875zM115.5625,102.125c-1.49072,0 -2.6875,1.20728 -2.6875,2.6875c0,1.48022 1.19678,2.6875 2.6875,2.6875h5.375c1.49072,0 2.6875,-1.20728 2.6875,-2.6875c0,-1.48022 -1.19678,-2.6875 -2.6875,-2.6875zM131.6875,102.125c-1.49072,0 -2.6875,1.20728 -2.6875,2.6875c0,1.48022 1.19678,2.6875 2.6875,2.6875h5.375c1.49072,0 2.6875,-1.20728 2.6875,-2.6875c0,-1.48022 -1.19678,-2.6875 -2.6875,-2.6875zM131.6875,118.25c-1.49072,0 -2.6875,1.20728 -2.6875,2.6875c0,1.48022 1.19678,2.6875 2.6875,2.6875h10.75c1.49072,0 2.6875,-1.20728 2.6875,-2.6875c0,-1.48022 -1.19678,-2.6875 -2.6875,-2.6875zM69.875,134.23853h10.75v26.875h-10.75zM86,134.23853h10.75v26.875h-10.75zM29.5625,134.375c-1.49072,0 -2.6875,1.20728 -2.6875,2.6875c0,1.48022 1.19678,2.6875 2.6875,2.6875h5.375c1.49072,0 2.6875,-1.20728 2.6875,-2.6875c0,-1.48022 -1.19678,-2.6875 -2.6875,-2.6875zM45.6875,134.375c-1.49072,0 -2.6875,1.20728 -2.6875,2.6875c0,1.48022 1.19678,2.6875 2.6875,2.6875h5.375c1.49072,0 2.6875,-1.20728 2.6875,-2.6875c0,-1.48022 -1.19678,-2.6875 -2.6875,-2.6875zM115.5625,134.375c-1.49072,0 -2.6875,1.20728 -2.6875,2.6875c0,1.48022 1.19678,2.6875 2.6875,2.6875h5.375c1.49072,0 2.6875,-1.20728 2.6875,-2.6875c0,-1.48022 -1.19678,-2.6875 -2.6875,-2.6875zM131.6875,134.375c-1.49072,0 -2.6875,1.20728 -2.6875,2.6875c0,1.48022 1.19678,2.6875 2.6875,2.6875h5.375c1.49072,0 2.6875,-1.20728 2.6875,-2.6875c0,-1.48022 -1.19678,-2.6875 -2.6875,-2.6875zM29.5625,145.125c-1.49072,0 -2.6875,1.20728 -2.6875,2.6875c0,1.48022 1.19678,2.6875 2.6875,2.6875h5.375c1.49072,0 2.6875,-1.20728 2.6875,-2.6875c0,-1.48022 -1.19678,-2.6875 -2.6875,-2.6875zM45.6875,145.125c-1.49072,0 -2.6875,1.20728 -2.6875,2.6875c0,1.48022 1.19678,2.6875 2.6875,2.6875h5.375c1.49072,0 2.6875,-1.20728 2.6875,-2.6875c0,-1.48022 -1.19678,-2.6875 -2.6875,-2.6875zM115.5625,145.125c-1.49072,0 -2.6875,1.20728 -2.6875,2.6875c0,1.48022 1.19678,2.6875 2.6875,2.6875h5.375c1.49072,0 2.6875,-1.20728 2.6875,-2.6875c0,-1.48022 -1.19678,-2.6875 -2.6875,-2.6875zM131.6875,145.125c-1.49072,0 -2.6875,1.20728 -2.6875,2.6875c0,1.48022 1.19678,2.6875 2.6875,2.6875h5.375c1.49072,0 2.6875,-1.20728 2.6875,-2.6875c0,-1.48022 -1.19678,-2.6875 -2.6875,-2.6875z"></path></g></g></svg>