<svg version="1.1" xmlns="http://www.w3.org/2000/svg" xmlns:xlink="http://www.w3.org/1999/xlink" viewBox="0 0 172 172"><g fill="none" fill-rule="nonzero" stroke="none" stroke-width="1" stroke-linecap="butt" stroke-linejoin="miter" stroke-miterlimit="10" stroke-dasharray="" stroke-dashoffset="0" font-family="none" font-weight="none" font-size="none" text-anchor="none" style="mix-blend-mode: normal"><path d="M0,172v-172h172v172z" fill="none"></path><g fill="#7cd647"><path d="M83.26211,19.35c-10.17051,0 -18.20781,4.04805 -23.56602,10.05293c-5.3582,6.01328 -8.09609,13.89941 -8.09609,21.65957c0,6.9791 1.53691,14.95762 1.99883,17.2168c-1.21778,1.0918 -1.99883,2.64551 -1.99883,4.39238c0,1.39414 0.41992,2.58672 0.76426,3.7541c0.16797,0.58789 0.33594,1.13379 0.44512,1.54531c0.10918,0.41152 0.13437,0.81465 0.13437,0.50391c0,2.92266 2.45234,5.20703 5.34141,5.30781c0.39473,8.33125 4.40918,15.68828 10.51484,20.53418v8.02051c-3.09902,0.94062 -10.54004,3.34258 -18.11543,6.92031c-4.94668,2.33477 -9.91855,5.14824 -13.79024,8.48242c-3.87168,3.33418 -6.79434,7.32344 -6.79434,12.00976v12.9h111.8v-12.9c0,-4.68633 -2.92266,-8.67559 -6.79434,-12.00976c-3.87168,-3.33418 -8.84355,-6.14766 -13.79024,-8.48242c-7.57539,-3.57773 -15.01641,-5.97969 -18.11543,-6.92031v-8.01211c6.10566,-4.8459 10.12012,-12.20293 10.51484,-20.54258c2.88906,-0.10078 5.34141,-2.38516 5.34141,-5.30781c0,0.31074 0.0252,-0.09238 0.13438,-0.50391c0.10918,-0.41152 0.27715,-0.95742 0.44512,-1.54531c0.34434,-1.16738 0.76426,-2.35996 0.76426,-3.7541c0,-1.76367 -0.79785,-3.31738 -2.02402,-4.41758c0.39473,-2.26758 2.02402,-11.97617 2.02402,-18.8041c0,-7.72656 -2.88906,-13.26113 -6.78594,-16.69609c-3.50215,-3.07383 -7.61738,-4.3084 -11.2623,-4.56875c-0.58789,-0.93223 -1.6293,-2.39355 -3.7877,-4.08164c-3.09902,-2.41035 -8.0709,-4.75352 -15.30195,-4.75352zM83.26211,23.65c6.31562,0 10.23769,1.95684 12.64805,3.84649c2.41875,1.88965 3.2166,3.55254 3.2166,3.55254l0.58789,1.20098h1.33535c2.86387,0 6.71875,1.0918 9.71699,3.7373c3.00664,2.64551 5.33301,6.77754 5.33301,13.4627c0,5.99649 -1.42773,14.74766 -1.84766,17.2c-0.0084,0 -0.0168,0 -0.03359,0c-0.18476,0 -0.15117,0.04199 -0.26875,0.05879v-6.50879c0,-7.35703 -3.00664,-12.30371 -6.03008,-15.23476c-3.02344,-2.93106 -6.18965,-4.00606 -6.18965,-4.00606l-1.22617,-0.41152l-0.94062,0.89863c0,0 -1.35215,1.32695 -4.61914,2.82187c-3.26699,1.49492 -8.32285,3.03184 -15.39434,3.03184c-3.87168,0 -8.96953,1.36895 -13.39551,4.45957c-4.40918,3.08223 -8.0793,8.12129 -8.09609,14.95762c-0.11758,-0.0168 -0.09238,-0.06719 -0.27715,-0.06719c-0.03359,0 -0.07559,0.0084 -0.10918,0.0084c-0.59629,-3.14101 -1.77207,-10.08652 -1.77207,-15.5959c0,-6.74395 2.41035,-13.64746 7.0043,-18.7873c4.59394,-5.14824 11.31269,-8.6252 20.35781,-8.6252zM101.05,45.48594c0.5207,0.20156 1.88125,0.62988 3.88008,2.56152c2.35156,2.28438 4.71992,5.9293 4.71992,12.15254v13.55508l3.2334,-1.89805c0.5543,-0.31914 1.0666,-0.60469 1.42774,-0.78945c0.04199,-0.0252 0.05879,-0.0252 0.10078,-0.05039c0.98262,0.10078 1.68809,0.78945 1.68809,1.64609v0.0084c0,0.15957 -0.26035,1.41934 -0.58789,2.54473c-0.16797,0.5543 -0.33594,1.11699 -0.47871,1.6293c-0.13438,0.5123 -0.27715,0.87344 -0.27715,1.6293c0,0.57109 -0.47031,1.075 -1.20937,1.075h-3.89688v2.93945c0,11.65703 -8.40684,21.29004 -19.47598,23.26367l-0.61309,0.10078l-0.46191,0.42832c-0.83984,0.76426 -1.89805,1.21777 -3.09902,1.21777c-1.20098,0 -2.25918,-0.45351 -3.09902,-1.21777l-0.46191,-0.42832l-0.61309,-0.10078c-11.06914,-1.97363 -19.47598,-11.60664 -19.47598,-23.26367v-2.93945h-3.89687c-0.73906,0 -1.20938,-0.50391 -1.20938,-1.075c0,-0.75586 -0.14277,-1.11699 -0.28555,-1.6293c-0.14278,-0.51231 -0.31074,-1.075 -0.47871,-1.6293c-0.32754,-1.12539 -0.57949,-2.38516 -0.57949,-2.54473c0,-0.86504 0.70547,-1.55371 1.68809,-1.65449c0.04199,0.0252 0.05879,0.0252 0.10078,0.05039c0.36113,0.18476 0.87344,0.47031 1.42774,0.78945l3.2334,1.89805v-6.9959c0,-5.3582 2.6707,-8.96113 6.26524,-11.47226c3.59453,-2.51113 8.16328,-3.68691 10.93476,-3.68691c7.70137,0 13.39551,-1.68809 17.1832,-3.41816c2.81347,-1.28496 3.55254,-2.07441 4.3168,-2.6959zM74.175,70.95c-1.78047,0 -3.225,1.44453 -3.225,3.225c0,1.78047 1.44453,3.225 3.225,3.225c1.78047,0 3.225,-1.44453 3.225,-3.225c0,-1.78047 -1.44453,-3.225 -3.225,-3.225zM97.825,70.95c-1.78047,0 -3.225,1.44453 -3.225,3.225c0,1.78047 1.44453,3.225 3.225,3.225c1.78047,0 3.225,-1.44453 3.225,-3.225c0,-1.78047 -1.44453,-3.225 -3.225,-3.225zM73.1,107.12207c2.29277,1.20098 4.77031,2.1248 7.39902,2.65391c1.52012,1.20938 3.40137,2.02402 5.50098,2.02402c2.09121,0 3.96406,-0.81465 5.47578,-2.01562c2.63711,-0.5207 5.12305,-1.44453 7.42422,-2.65391v8.96953c0,0.77266 -0.60469,2.18359 -1.85605,3.70371c-1.25977,1.52852 -3.04024,3.12422 -4.8459,4.55195c-3.13262,2.46074 -5.51778,3.81289 -6.29883,4.2748c-0.78105,-0.35273 -3.10742,-1.34375 -6.17285,-3.52734c-3.54414,-2.53633 -6.62637,-5.95449 -6.62637,-9.00312zM68.86719,116.83906c0.38633,5.17344 4.55195,9.04512 8.35645,11.75781c3.98086,2.84707 7.92812,4.53516 7.92812,4.53516l0.98262,0.41152l0.93223,-0.5207c0,0 3.87168,-2.21719 7.78535,-5.29102c1.95684,-1.52851 3.93887,-3.29219 5.50097,-5.19023c1.41094,-1.71328 2.56992,-3.56934 2.79668,-5.70254c3.44336,1.0834 9.80097,3.225 16.33496,6.31562c4.72832,2.23399 9.43145,4.92988 12.81601,7.84414c3.38457,2.91426 5.29941,5.9125 5.29941,8.75117v8.6h-103.2v-8.6c0,-2.83867 1.91484,-5.83691 5.29941,-8.75117c3.38457,-2.91426 8.0877,-5.61016 12.81601,-7.84414c6.55078,-3.09063 12.9168,-5.23223 16.35176,-6.31562zM43,139.75c-1.18418,0 -2.15,0.96582 -2.15,2.15c0,1.18418 0.96582,2.15 2.15,2.15c1.18418,0 2.15,-0.96582 2.15,-2.15c0,-1.18418 -0.96582,-2.15 -2.15,-2.15zM51.6,139.75c-1.18418,0 -2.15,0.96582 -2.15,2.15c0,1.18418 0.96582,2.15 2.15,2.15c1.18418,0 2.15,-0.96582 2.15,-2.15c0,-1.18418 -0.96582,-2.15 -2.15,-2.15zM60.2,139.75c-1.18418,0 -2.15,0.96582 -2.15,2.15c0,1.18418 0.96582,2.15 2.15,2.15c1.18418,0 2.15,-0.96582 2.15,-2.15c0,-1.18418 -0.96582,-2.15 -2.15,-2.15zM68.8,139.75c-1.18418,0 -2.15,0.96582 -2.15,2.15c0,1.18418 0.96582,2.15 2.15,2.15c1.18418,0 2.15,-0.96582 2.15,-2.15c0,-1.18418 -0.96582,-2.15 -2.15,-2.15zM77.4,139.75c-1.18418,0 -2.15,0.96582 -2.15,2.15c0,1.18418 0.96582,2.15 2.15,2.15c1.18418,0 2.15,-0.96582 2.15,-2.15c0,-1.18418 -0.96582,-2.15 -2.15,-2.15zM86,139.75c-1.18418,0 -2.15,0.96582 -2.15,2.15c0,1.18418 0.96582,2.15 2.15,2.15c1.18418,0 2.15,-0.96582 2.15,-2.15c0,-1.18418 -0.96582,-2.15 -2.15,-2.15zM94.6,139.75c-1.18418,0 -2.15,0.96582 -2.15,2.15c0,1.18418 0.96582,2.15 2.15,2.15c1.18418,0 2.15,-0.96582 2.15,-2.15c0,-1.18418 -0.96582,-2.15 -2.15,-2.15zM103.2,139.75c-1.18418,0 -2.15,0.96582 -2.15,2.15c0,1.18418 0.96582,2.15 2.15,2.15c1.18418,0 2.15,-0.96582 2.15,-2.15c0,-1.18418 -0.96582,-2.15 -2.15,-2.15zM111.8,139.75c-1.18418,0 -2.15,0.96582 -2.15,2.15c0,1.18418 0.96582,2.15 2.15,2.15c1.18418,0 2.15,-0.96582 2.15,-2.15c0,-1.18418 -0.96582,-2.15 -2.15,-2.15zM120.4,139.75c-1.18418,0 -2.15,0.96582 -2.15,2.15c0,1.18418 0.96582,2.15 2.15,2.15c1.18418,0 2.15,-0.96582 2.15,-2.15c0,-1.18418 -0.96582,-2.15 -2.15,-2.15zM129,139.75c-1.18418,0 -2.15,0.96582 -2.15,2.15c0,1.18418 0.96582,2.15 2.15,2.15c1.18418,0 2.15,-0.96582 2.15,-2.15c0,-1.18418 -0.96582,-2.15 -2.15,-2.15z"></path></g></g></svg>